<?xml version="1.0" encoding="UTF-8" standalone="no"?>
<!DOCTYPE svg PUBLIC "-//W3C//DTD SVG 1.1//EN" "http://www.w3.org/Graphics/SVG/1.1/DTD/svg11.dtd">
<svg width="100%" height="100%" viewBox="0 0 70 70" version="1.1" xmlns="http://www.w3.org/2000/svg" xmlns:xlink="http://www.w3.org/1999/xlink" xml:space="preserve" xmlns:serif="http://www.serif.com/" style="fill-rule:evenodd;clip-rule:evenodd;stroke-linejoin:round;stroke-miterlimit:2;">
    <g id="Ellipse_31" transform="matrix(0.7,0,0,0.7,0,0)">
        <g id="logo_JFVD_aquablauw_Tekengebied_1">
            <path id="Ellipse_311" serif:id="Ellipse_31" d="M50,0C77.596,0 100,22.404 100,50C100,77.596 77.596,100 50,100C22.404,100 0,77.596 0,50C0,22.404 22.404,0 50,0ZM32.757,38.294L23.913,38.294L23.913,40.502L25.362,42.102L24.018,64.307L32.652,64.307L31.308,42.102L32.757,40.502L32.757,38.294ZM82.16,76.639L17.178,76.639L17.178,79.238L82.16,79.238L82.16,76.639ZM46.864,38.294L38.017,38.294L38.017,40.502L39.468,42.102L38.124,64.307L46.756,64.307L45.412,42.102L46.863,40.502L46.864,38.294ZM60.967,38.294L52.123,38.294L52.123,40.502L53.572,42.102L52.223,64.307L60.857,64.307L59.523,42.102L60.972,40.502L60.967,38.294ZM75.071,38.294L66.227,38.294L66.227,40.502L67.676,42.102L66.332,64.307L74.966,64.307L73.622,42.102L75.071,40.502L75.071,38.294ZM77.869,33.026L21.469,33.026L21.469,35.625L77.869,35.625L77.869,33.026ZM82.16,28.808L49.671,15.468L17.178,28.808L17.178,30.74L82.16,30.74L82.16,28.808ZM77.869,66.973L21.469,66.973L21.469,69.572L77.869,69.572L77.869,66.973ZM79.71,71.807L19.631,71.807L19.631,74.406L79.71,74.406L79.71,71.807Z" style="fill:#5FC4BF;"/>
        </g>
    </g>
</svg>
