<svg viewBox="0 0 64 64" xmlns="http://www.w3.org/2000/svg" id="Thumbs-Up-2--Streamline-Emoji" height="64" width="64">
  <desc>
    Thumbs Up 2 Streamline Emoji: https://streamlinehq.com
  </desc>
  <path d="M17.333333333333332 60.666666666666664a14.666666666666666 2 0 1 0 29.333333333333332 0 14.666666666666666 2 0 1 0 -29.333333333333332 0Z" fill="#45413c" opacity=".15" stroke-width="1"></path>
  <g class="thumb">
    <path d="M49.56 40.56h0.24a3.3866666666666667 3.3866666666666667 0 1 0 0 -6.773333333333333h-3.3866666666666667a3.3999999999999995 3.3999999999999995 0 0 0 0 -6.786666666666666h-8.16c0.7733333333333332 -1.92 1.76 -4.946666666666666 2.6666666666666665 -7.826666666666666a5.573333333333332 5.573333333333332 0 0 0 -3.6933333333333334 -6.933333333333334 1.44 1.44 0 0 0 -1.8133333333333335 0.96c-1.1466666666666665 3.92 -2 8.866666666666667 -8 13.333333333333332a24.306666666666665 24.306666666666665 0 0 0 -5.333333333333333 5.786666666666666 5.333333333333333 5.333333333333333 0 0 1 -4.266666666666667 2.2666666666666666H13.053333333333331a1.3333333333333333 1.3333333333333333 0 0 0 -1.3333333333333333 1.3333333333333333v14.826666666666664a1.3333333333333333 1.3333333333333333 0 0 0 1.3333333333333333 1.3333333333333333h3.3200000000000003c4.373333333333333 0.10666666666666666 6.266666666666667 1.7466666666666666 11.719999999999999 1.7466666666666666h17.96a3 3 0 0 0 0 -6h3.5066666666666664a3.6399999999999997 3.6399999999999997 0 0 0 0 -7.266666666666667Z" fill="#ffcebf" stroke-width="1"></path>
    <path d="M19.119999999999997 38.17333333333333a5.24 5.24 0 0 0 4.253333333333333 -2.2666666666666666 24 24 0 0 1 5.333333333333333 -5.786666666666666c6 -4.426666666666666 6.866666666666667 -9.333333333333332 8 -13.333333333333332a1.44 1.44 0 0 1 1.8 -0.96 5.453333333333333 5.453333333333333 0 0 1 2.5466666666666664 1.64 5.586666666666667 5.586666666666667 0 0 0 -3.9333333333333336 -5.333333333333333 1.44 1.44 0 0 0 -1.8133333333333335 0.96c-1.1466666666666665 3.92 -2 8.866666666666667 -8 13.333333333333332a24.306666666666665 24.306666666666665 0 0 0 -5.333333333333333 5.786666666666666 5.333333333333333 5.333333333333333 0 0 1 -4.266666666666667 2.2666666666666666H13.053333333333331a1.3333333333333333 1.3333333333333333 0 0 0 -1.3333333333333333 1.3333333333333333v2.293333333333333Z" fill="#ffdcd1" stroke-width="1"></path>
    <path d="m37.82666666666667 34.76 -0.07999999999999999 0.15999999999999998a15.213333333333333 15.213333333333333 0 0 1 -11.573333333333332 8.293333333333333h0" fill="none" stroke="#45413c" stroke-linecap="round" stroke-linejoin="round" stroke-width="1"></path>
    <path d="m33.85333333333333 47.82666666666666 15.2 0 0 6 -15.2 0Z" fill="#ffcebf" stroke-width="1"></path>
    <path d="m32.946666666666665 40.56 20.24 0 0 7.266666666666667 -20.24 0Z" fill="#ffcebf" stroke-width="1"></path>
    <path d="m32.946666666666665 33.78666666666666 20.24 0 0 6.786666666666666 -20.24 0Z" fill="#ffcebf" stroke-width="1"></path>
    <path d="m33.85333333333333 27 15.946666666666667 0 0 6.786666666666666 -15.946666666666667 0Z" fill="#ffcebf" stroke-width="1"></path>
    <path d="M37.239999999999995 29.786666666666665h9.173333333333332a3.413333333333333 3.413333333333333 0 0 1 3.093333333333333 2 3.466666666666667 3.466666666666667 0 0 0 0.29333333333333333 -1.4 3.3866666666666667 3.3866666666666667 0 0 0 -3.3866666666666667 -3.3866666666666667h-9.173333333333332a3.3866666666666667 3.3866666666666667 0 0 0 -3.3866666666666667 3.3866666666666667 3.466666666666667 3.466666666666667 0 0 0 0.29333333333333333 1.4 3.413333333333333 3.413333333333333 0 0 1 3.093333333333333 -2Z" fill="#ffdcd1" stroke-width="1"></path>
    <path d="m33.85333333333333 47.82666666666666 15.2 0 0 6 -15.2 0Z" fill="none" stroke="#45413c" stroke-linecap="round" stroke-linejoin="round" stroke-width="1"></path>
    <path d="m32.946666666666665 40.56 20.24 0 0 7.266666666666667 -20.24 0Z" fill="none" stroke="#45413c" stroke-linecap="round" stroke-linejoin="round" stroke-width="1"></path>
    <path d="m32.946666666666665 33.78666666666666 20.24 0 0 6.786666666666666 -20.24 0Z" fill="none" stroke="#45413c" stroke-linecap="round" stroke-linejoin="round" stroke-width="1"></path>
    <path d="m33.85333333333333 27 15.946666666666667 0 0 6.786666666666666 -15.946666666666667 0Z" fill="none" stroke="#45413c" stroke-linecap="round" stroke-linejoin="round" stroke-width="1"></path>
    <path d="M49.56 40.56h0.24a3.3866666666666667 3.3866666666666667 0 1 0 0 -6.773333333333333h-3.3866666666666667a3.3999999999999995 3.3999999999999995 0 0 0 0 -6.786666666666666h-8.16c0.7733333333333332 -1.92 1.76 -4.946666666666666 2.6666666666666665 -7.826666666666666a5.573333333333332 5.573333333333332 0 0 0 -3.6933333333333334 -6.933333333333334 1.44 1.44 0 0 0 -1.8133333333333335 0.96c-1.1466666666666665 3.92 -2 8.866666666666667 -8 13.333333333333332a24.306666666666665 24.306666666666665 0 0 0 -5.333333333333333 5.786666666666666 5.333333333333333 5.333333333333333 0 0 1 -4.266666666666667 2.2666666666666666H13.053333333333331a1.3333333333333333 1.3333333333333333 0 0 0 -1.3333333333333333 1.3333333333333333v14.826666666666664a1.3333333333333333 1.3333333333333333 0 0 0 1.3333333333333333 1.3333333333333333h3.3200000000000003c4.373333333333333 0.10666666666666666 6.266666666666667 1.7466666666666666 11.719999999999999 1.7466666666666666h17.96a3 3 0 0 0 0 -6h3.5066666666666664a3.6399999999999997 3.6399999999999997 0 0 0 0 -7.266666666666667Z" fill="none" stroke="#45413c" stroke-linecap="round" stroke-linejoin="round" stroke-width="1"></path>
  </g>
</svg>