<svg viewBox="0 0 64 64" xmlns="http://www.w3.org/2000/svg" id="Thumbs-Down-2--Streamline-Emoji" height="64" width="64">
  <desc>
    Thumbs Down 2 Streamline Emoji: https://streamlinehq.com
  </desc>
  <path d="M17.333333333333332 60.666666666666664a14.666666666666666 2 0 1 0 29.333333333333332 0 14.666666666666666 2 0 1 0 -29.333333333333332 0Z" fill="#45413c" opacity=".15" stroke-width="1"></path>
  <g class="thumb">
    <path d="M49.56 25.439999999999998h0.24a3.3999999999999995 3.3999999999999995 0 0 1 0 6.786666666666666h-3.3866666666666667a3.3866666666666667 3.3866666666666667 0 0 1 0 6.773333333333333h-8.16c0.7733333333333332 1.92 1.76 4.96 2.6666666666666665 7.826666666666666a5.586666666666667 5.586666666666667 0 0 1 -3.6933333333333334 6.946666666666666 1.4533333333333334 1.4533333333333334 0 0 1 -1.8133333333333335 -0.9733333333333333c-1.1466666666666665 -3.9066666666666667 -2 -8.866666666666667 -8 -13.333333333333332a24.813333333333333 24.813333333333333 0 0 1 -5.3999999999999995 -5.799999999999999 5.213333333333333 5.213333333333333 0 0 0 -4.253333333333333 -2.253333333333333H13.053333333333331a1.3333333333333333 1.3333333333333333 0 0 1 -1.3333333333333333 -1.3333333333333333V15.253333333333332a1.3333333333333333 1.3333333333333333 0 0 1 1.3333333333333333 -1.3333333333333333h3.3200000000000003c4.373333333333333 -0.09333333333333334 6.266666666666667 -1.7466666666666666 11.719999999999999 -1.7466666666666666h17.96a3 3 0 0 1 0 6h3.5066666666666664a3.6399999999999997 3.6399999999999997 0 0 1 0 7.266666666666667Z" fill="#ffcebf" stroke-width="1"></path>
    <path d="M49.56 25.439999999999998h0.24a3.3999999999999995 3.3999999999999995 0 0 1 0 6.786666666666666h-3.3866666666666667a3.3866666666666667 3.3866666666666667 0 0 1 0 6.773333333333333h-8.16c0.7733333333333332 1.92 1.76 4.96 2.6666666666666665 7.826666666666666a5.586666666666667 5.586666666666667 0 0 1 -3.6933333333333334 6.946666666666666 1.4533333333333334 1.4533333333333334 0 0 1 -1.8133333333333335 -0.9733333333333333c-1.1466666666666665 -3.9066666666666667 -2 -8.866666666666667 -8 -13.333333333333332a24.813333333333333 24.813333333333333 0 0 1 -5.3999999999999995 -5.799999999999999 5.213333333333333 5.213333333333333 0 0 0 -4.253333333333333 -2.253333333333333H13.053333333333331a1.3333333333333333 1.3333333333333333 0 0 1 -1.3333333333333333 -1.3333333333333333V15.253333333333332a1.3333333333333333 1.3333333333333333 0 0 1 1.3333333333333333 -1.3333333333333333h3.3200000000000003c4.373333333333333 -0.09333333333333334 6.266666666666667 -1.7466666666666666 11.719999999999999 -1.7466666666666666h17.96a3 3 0 0 1 0 6h3.5066666666666664a3.6399999999999997 3.6399999999999997 0 0 1 0 7.266666666666667Z" fill="#ffcebf" stroke-width="1"></path>
    <path d="M13.053333333333331 18.28h3.3200000000000003c4.373333333333333 -0.10666666666666666 6.266666666666667 -1.76 11.719999999999999 -1.76h17.96a3 3 0 0 1 2.0666666666666664 0.8266666666666667 3 3 0 0 0 -2.0666666666666664 -5.173333333333333H28.093333333333334c-5.453333333333333 0 -7.346666666666666 1.6533333333333333 -11.719999999999999 1.7466666666666666H13.053333333333331a1.3333333333333333 1.3333333333333333 0 0 0 -1.3333333333333333 1.3333333333333333v4.359999999999999a1.3333333333333333 1.3333333333333333 0 0 1 1.3333333333333333 -1.3333333333333333Z" fill="#ffdcd1" stroke-width="1"></path>
    <path d="m37.82666666666667 31.24 -0.07999999999999999 -0.14666666666666667a15.186666666666667 15.186666666666667 0 0 0 -11.586666666666666 -8.293333333333333h0" fill="none" stroke="#45413c" stroke-linecap="round" stroke-linejoin="round" stroke-width="1"></path>
    <path d="m33.85333333333333 12.173333333333334 15.2 0 0 6 -15.2 0Z" fill="#ffcebf" stroke-width="1"></path>
    <path d="M36.85333333333333 15.173333333333334h9.2a3.0133333333333328 3.0133333333333328 0 0 1 2.6666666666666665 1.4933333333333334 3 3 0 0 0 -2.6666666666666665 -4.493333333333333h-9.2a3 3 0 0 0 -2.5999999999999996 4.493333333333333 3.0133333333333328 3.0133333333333328 0 0 1 2.5999999999999996 -1.4933333333333334Z" fill="#ffdcd1" stroke-width="1"></path>
    <path d="m32.946666666666665 18.173333333333332 20.24 0 0 7.266666666666667 -20.24 0Z" fill="#ffcebf" stroke-width="1"></path>
    <path d="m32.946666666666665 25.439999999999998 20.24 0 0 6.786666666666666 -20.24 0Z" fill="#ffcebf" stroke-width="1"></path>
    <path d="m33.85333333333333 32.22666666666667 15.946666666666667 0 0 6.786666666666666 -15.946666666666667 0Z" fill="#ffcebf" stroke-width="1"></path>
    <path d="m33.85333333333333 12.173333333333334 15.2 0 0 6 -15.2 0Z" fill="none" stroke="#45413c" stroke-linecap="round" stroke-linejoin="round" stroke-width="1"></path>
    <path d="m32.946666666666665 18.173333333333332 20.24 0 0 7.266666666666667 -20.24 0Z" fill="none" stroke="#45413c" stroke-linecap="round" stroke-linejoin="round" stroke-width="1"></path>
    <path d="m32.946666666666665 25.439999999999998 20.24 0 0 6.786666666666666 -20.24 0Z" fill="none" stroke="#45413c" stroke-linecap="round" stroke-linejoin="round" stroke-width="1"></path>
    <path d="m33.85333333333333 32.22666666666667 15.946666666666667 0 0 6.786666666666666 -15.946666666666667 0Z" fill="none" stroke="#45413c" stroke-linecap="round" stroke-linejoin="round" stroke-width="1"></path>
    <path d="M49.56 25.439999999999998h0.24a3.3999999999999995 3.3999999999999995 0 0 1 0 6.786666666666666h-3.3866666666666667a3.3866666666666667 3.3866666666666667 0 0 1 0 6.773333333333333h-8.16c0.7733333333333332 1.92 1.76 4.96 2.6666666666666665 7.826666666666666a5.586666666666667 5.586666666666667 0 0 1 -3.6933333333333334 6.946666666666666 1.4533333333333334 1.4533333333333334 0 0 1 -1.8133333333333335 -0.9733333333333333c-1.1466666666666665 -3.9066666666666667 -2 -8.866666666666667 -8 -13.333333333333332a24.813333333333333 24.813333333333333 0 0 1 -5.3999999999999995 -5.799999999999999 5.213333333333333 5.213333333333333 0 0 0 -4.253333333333333 -2.253333333333333H13.053333333333331a1.3333333333333333 1.3333333333333333 0 0 1 -1.3333333333333333 -1.3333333333333333V15.253333333333332a1.3333333333333333 1.3333333333333333 0 0 1 1.3333333333333333 -1.3333333333333333h3.3200000000000003c4.373333333333333 -0.09333333333333334 6.266666666666667 -1.7466666666666666 11.719999999999999 -1.7466666666666666h17.96a3 3 0 0 1 0 6h3.5066666666666664a3.6399999999999997 3.6399999999999997 0 0 1 0 7.266666666666667Z" fill="none" stroke="#45413c" stroke-linecap="round" stroke-linejoin="round" stroke-width="1"></path>
  </g>
</svg>